<svg xmlns="http://www.w3.org/2000/svg" version="1.1" xmlns:xlink="http://www.w3.org/1999/xlink" xmlns:svgjs="http://svgjs.dev/svgjs" width="128" height="128" viewBox="0 0 128 128"><g transform="matrix(0.8046875,0,0,0.8046875,12.221578124999994,12.221578124999994)"><svg viewBox="0 0 96 96" data-background-color="#0a031f" preserveAspectRatio="xMidYMid meet" height="128" width="128" xmlns="http://www.w3.org/2000/svg" xmlns:xlink="http://www.w3.org/1999/xlink"><g id="tight-bounds" transform="matrix(1,0,0,1,0.25950000000000273,0.25950000000000273)"><svg viewBox="0 0 95.481 95.481" height="95.481" width="95.481"><g><svg viewBox="0 0 95.481 95.481" height="95.481" width="95.481"><g><svg viewBox="0 0 95.481 95.481" height="95.481" width="95.481"><g id="textblocktransform"><svg viewBox="0 0 95.481 95.481" height="95.481" width="95.481" id="textblock"><g><svg viewBox="0 0 95.481 95.481" height="95.481" width="95.481"><g><svg viewBox="0 0 95.481 95.481" height="95.481" width="95.481"><g><svg xmlns="http://www.w3.org/2000/svg" viewBox="2.5 2.5 27 27" x="0" y="0" height="95.481" width="95.481" class="icon-icon-0" data-fill-palette-color="accent" id="icon-0"><g data-name="Layer 51" fill="#ffffff" data-fill-palette-color="accent"><line x1="9" y1="24" x2="19" y2="17" fill="#000000" data-fill-palette-color="accent"></line><path d="M16 26.5A3.51 3.51 0 0 0 12.54 29.5H19.47A3.51 3.51 0 0 0 16 26.5" fill="#000000" data-fill-palette-color="accent"></path><path d="M29.5 29.5V2.5H26.5V11A0.5 0.5 0 0 1 26 11.5H20.45A4.47 4.47 0 0 1 11.55 11.5H6A0.5 0.5 0 0 1 5.5 11V2.5H2.5V29.5H11.55A4.47 4.47 0 0 1 20.45 29.5ZM7 27A1 1 0 1 1 8 26 1 1 0 0 1 7 27M19.29 17.41L9.29 24.41A0.5 0.5 0 0 1 8.72 23.59L18.72 16.59A0.5 0.5 0 1 1 19.29 17.41M20 15A1 1 0 1 1 21 16 1 1 0 0 1 20 15" fill="#000000" data-fill-palette-color="accent"></path><path d="M25.5 10.5V2.5H6.5V10.5zM10 7A1 1 0 1 1 11 6 1 1 0 0 1 10 7" fill="#000000" data-fill-palette-color="accent"></path><path d="M16 14.5A3.51 3.51 0 0 0 19.46 11.5H12.54A3.51 3.51 0 0 0 16 14.5" fill="#000000" data-fill-palette-color="accent"></path></g></svg></g></svg></g></svg></g></svg></g></svg></g></svg></g><defs></defs></svg><rect width="95.481" height="95.481" fill="none" stroke="none" visibility="hidden"></rect></g></svg></g></svg>