<svg version="1.2" xmlns="http://www.w3.org/2000/svg" viewBox="0 0 128 128" width="128" height="128">
	<title>statfield-favicon-black-svg</title>
	<style>
		.s0 { fill: #000000 } 
	</style>
	<g>
		<g>
			<rect width="128" height="128" id="Wypełnienie kolorem 1" style="fill: #ffffff"/>
			<g id="tight-bounds">
				<g>
					<g>
						<g>
							<g>
								<g>
									<g id="textblocktransform">
										<g id="textblock">
											<g>
												<g>
													<g>
														<g>
															<g>
																<g id="icon-0">
																	<g id="Layer 51">
																		<path class="s0" d="m37.2 94.1l37.9-26.6"/>
																		<path class="s0" d="m63.7 103.6c-1.6 0-3.1 0.3-4.6 0.8-1.5 0.6-2.9 1.4-4.1 2.4-1.1 1.1-2.2 2.3-2.9 3.7-0.8 1.4-1.3 2.9-1.5 4.4h26.3c-0.2-1.5-0.8-3-1.5-4.4-0.8-1.4-1.8-2.7-3-3.7-1.2-1-2.6-1.8-4-2.4-1.5-0.6-3.1-0.8-4.7-0.8z"/>
																		<path fill-rule="evenodd" class="s0" d="m80.6 114.9c-0.4-4.2-2.3-8.1-5.5-10.9-3.1-2.8-7.2-4.4-11.4-4.4-4.2 0-8.3 1.6-11.4 4.4-3.1 2.8-5.1 6.7-5.5 10.9h-34.3v-102.4h11.4v32.3q0 0.3 0.1 0.7 0.2 0.3 0.4 0.6 0.3 0.3 0.7 0.4 0.3 0.1 0.7 0.1h21c0.4 4.2 2.4 8.2 5.5 11 3.1 2.8 7.2 4.4 11.4 4.4 4.2 0 8.3-1.6 11.4-4.4 3.2-2.8 5.1-6.8 5.5-11h21.1q0.3 0 0.7-0.1 0.3-0.1 0.6-0.4 0.3-0.3 0.4-0.6 0.2-0.4 0.2-0.7v-32.3h11.3v102.4zm-49.5-9.7q0.7-0.3 1.2-0.9 0.5-0.5 0.8-1.2 0.3-0.7 0.3-1.4c0-1.6-0.9-3-2.3-3.5-1.5-0.6-3.1-0.3-4.2 0.8-1.1 1.1-1.4 2.7-0.8 4.1 0.6 1.4 2 2.4 3.5 2.4q0.8 0 1.5-0.3zm46-37.4c0.1-0.5 0-1-0.3-1.4-0.3-0.5-0.8-0.7-1.3-0.8-0.5-0.1-1 0-1.4 0.4l-38 26.5c-0.3 0.3-0.6 0.8-0.7 1.2 0 0.5 0.1 1 0.3 1.4 0.3 0.4 0.7 0.7 1.2 0.8 0.5 0.1 1 0 1.4-0.3l37.9-26.5c0.5-0.3 0.8-0.7 0.9-1.3zm2.1-6.4q0.3 0.7 0.8 1.2 0.6 0.5 1.3 0.8 0.7 0.3 1.4 0.3c1.6 0 2.9-0.9 3.5-2.3 0.6-1.4 0.3-3.1-0.8-4.2-1.1-1-2.7-1.4-4.1-0.8-1.4 0.6-2.4 2-2.4 3.5q0 0.8 0.3 1.5z"/>
																		<path fill-rule="evenodd" class="s0" d="m27.7 42.9v-30.4h72.1v30.4zm14.7-13.6q0.7-0.3 1.2-0.8 0.6-0.6 0.9-1.3 0.2-0.7 0.2-1.4c0-1.6-0.9-2.9-2.3-3.5-1.4-0.6-3.1-0.3-4.1 0.8-1.1 1.1-1.4 2.7-0.9 4.1 0.6 1.4 2 2.4 3.5 2.4q0.8 0 1.5-0.3z"/>
																		<path class="s0" d="m63.7 58c1.6 0 3.2-0.3 4.7-0.8 1.4-0.6 2.8-1.4 4-2.4 1.2-1.1 2.2-2.3 3-3.7 0.7-1.4 1.2-2.9 1.4-4.5h-26.2c0.2 1.6 0.7 3.1 1.5 4.5 0.7 1.4 1.8 2.6 2.9 3.7 1.2 1 2.6 1.8 4.1 2.4 1.5 0.5 3 0.8 4.6 0.8z"/>
																	</g>
																</g>
															</g>
														</g>
													</g>
												</g>
											</g>
										</g>
									</g>
								</g>
							</g>
						</g>
					</g>
				</g>
			</g>
		</g>
	</g>
</svg>