<svg xmlns="http://www.w3.org/2000/svg" version="1.1" xmlns:xlink="http://www.w3.org/1999/xlink" xmlns:svgjs="http://svgjs.dev/svgjs" width="1500" height="1500" viewBox="0 0 1500 1500"><rect width="1500" height="1500" fill="#0a031f"></rect><g transform="matrix(0.6666666666666666,0,0,0.6666666666666666,249.39393939393938,627.8593361727478)"><svg viewBox="0 0 396 96" data-background-color="#0a031f" preserveAspectRatio="xMidYMid meet" height="363" width="1500" xmlns="http://www.w3.org/2000/svg" xmlns:xlink="http://www.w3.org/1999/xlink"><g id="tight-bounds" transform="matrix(1,0,0,1,0.2400000000000091,0.4524947413893017)"><svg viewBox="0 0 395.52 95.09501051722141" height="95.09501051722141" width="395.52"><g><svg viewBox="0 0 550.4810389488043 132.35234675457" height="95.09501051722141" width="395.52"><g transform="matrix(1,0,0,1,154.96103894880432,18.291822163620026)"><svg viewBox="0 0 395.52 95.76870242732994" height="95.76870242732994" width="395.52"><g id="textblocktransform"><svg viewBox="0 0 395.52 95.76870242732994" height="95.76870242732994" width="395.52" id="textblock"><g><svg viewBox="0 0 395.52 95.76870242732994" height="95.76870242732994" width="395.52"><g transform="matrix(1,0,0,1,0,0)"><svg width="395.52" viewBox="0.35 -39.65 166.83 40.4" height="95.76870242732994" data-palette-color="#ffffff"><g class="wordmark-text-0" data-fill-palette-color="primary" id="text-0"><path d="M11.75-35.25Q14.75-35.25 17.05-34.2 19.35-33.15 21.3-31.05L21.3-31.05 18.35-27.65Q16.8-29.05 15.33-29.75 13.85-30.45 12.2-30.45L12.2-30.45Q10.3-30.45 9.2-29.28 8.1-28.1 8.1-26.2L8.1-26.2Q8.1-24.3 9.25-23.1 10.4-21.9 13.75-20.6L13.75-20.6Q18.05-18.85 20.08-16.5 22.1-14.15 22.1-9.85L22.1-9.85Q22.1-6.9 20.75-4.48 19.4-2.05 16.88-0.65 14.35 0.75 11 0.75L11 0.75Q7.55 0.75 5-0.48 2.45-1.7 0.35-3.95L0.35-3.95 3.55-7.45Q5.35-5.85 7-5 8.65-4.15 10.6-4.15L10.6-4.15Q12.9-4.15 14.18-5.58 15.45-7 15.45-9.45L15.45-9.45Q15.45-11.6 14.33-12.98 13.2-14.35 10.15-15.5L10.15-15.5Q5.55-17.35 3.53-19.75 1.5-22.15 1.5-25.75L1.5-25.75Q1.5-28.5 2.83-30.65 4.15-32.8 6.5-34.02 8.85-35.25 11.75-35.25L11.75-35.25ZM37.25-5L39.4-1.2Q36.95 0.75 33.65 0.75L33.65 0.75Q30.2 0.75 28.4-1.23 26.6-3.2 26.6-6.6L26.6-6.6 26.6-22 23.5-22 23.5-26.45 26.6-26.45 26.6-32.3 32.75-33.05 32.75-26.45 37.75-26.45 37.15-22 32.75-22 32.75-6.6Q32.75-4.2 34.8-4.2L34.8-4.2Q35.45-4.2 35.95-4.38 36.45-4.55 37.25-5L37.25-5ZM58.84-6.4Q58.84-5.1 59.2-4.48 59.55-3.85 60.34-3.45L60.34-3.45 59.09 0.65Q57.05 0.4 55.82-0.45 54.59-1.3 53.99-3.05L53.99-3.05Q51.7 0.75 47.55 0.75L47.55 0.75Q44.24 0.75 42.3-1.48 40.34-3.7 40.34-7.4L40.34-7.4Q40.34-11.7 43.02-13.95 45.7-16.2 50.8-16.2L50.8-16.2 52.84-16.2 52.84-18.05Q52.84-20.55 51.97-21.58 51.09-22.6 49.14-22.6L49.14-22.6Q46.8-22.6 43.3-21.3L43.3-21.3 41.89-25.3Q43.89-26.2 46.05-26.68 48.2-27.15 50.14-27.15L50.14-27.15Q58.84-27.15 58.84-18.35L58.84-18.35 58.84-6.4ZM49.2-3.7Q51.59-3.7 52.84-7L52.84-7 52.84-12.55 51.39-12.55Q48.84-12.55 47.67-11.4 46.49-10.25 46.49-7.85L46.49-7.85Q46.49-5.8 47.2-4.75 47.89-3.7 49.2-3.7L49.2-3.7ZM75.79-5L77.94-1.2Q75.49 0.75 72.19 0.75L72.19 0.75Q68.74 0.75 66.94-1.23 65.14-3.2 65.14-6.6L65.14-6.6 65.14-22 62.04-22 62.04-26.45 65.14-26.45 65.14-32.3 71.29-33.05 71.29-26.45 76.29-26.45 75.69-22 71.29-22 71.29-6.6Q71.29-4.2 73.34-4.2L73.34-4.2Q73.99-4.2 74.49-4.38 74.99-4.55 75.79-5L75.79-5ZM86.99 0L80.64 0 80.64-34.55 97.34-34.55 96.64-29.8 86.99-29.8 86.99-19.25 95.39-19.25 95.39-14.5 86.99-14.5 86.99 0ZM100.64-26.45L106.79-26.45 106.79 0 100.64 0 100.64-26.45ZM103.69-39.65Q105.34-39.65 106.36-38.6 107.39-37.55 107.39-35.9L107.39-35.9Q107.39-34.3 106.36-33.25 105.34-32.2 103.69-32.2L103.69-32.2Q102.04-32.2 101.01-33.25 99.99-34.3 99.99-35.9L99.99-35.9Q99.99-37.55 101.01-38.6 102.04-39.65 103.69-39.65L103.69-39.65ZM131.34-13.85Q131.34-13.4 131.19-11.3L131.19-11.3 117.54-11.3Q117.74-7.2 118.96-5.58 120.19-3.95 122.44-3.95L122.44-3.95Q123.99-3.95 125.24-4.48 126.49-5 127.94-6.15L127.94-6.15 130.49-2.65Q126.99 0.75 122.09 0.75L122.09 0.75Q116.89 0.75 114.11-2.85 111.34-6.45 111.34-13L111.34-13Q111.34-19.55 113.99-23.35 116.64-27.15 121.49-27.15L121.49-27.15Q126.14-27.15 128.74-23.78 131.34-20.4 131.34-13.85L131.34-13.85ZM125.34-15.3L125.34-15.65Q125.34-19.4 124.44-21.13 123.54-22.85 121.54-22.85L121.54-22.85Q119.69-22.85 118.71-21.18 117.74-19.5 117.54-15.3L117.54-15.3 125.34-15.3ZM141.23 0.75Q138.53 0.75 136.96-0.93 135.38-2.6 135.38-5.4L135.38-5.4 135.38-37.05 141.53-37.7 141.53-5.65Q141.53-5 141.83-4.6 142.13-4.2 142.73-4.2L142.73-4.2Q143.08-4.2 143.41-4.3 143.73-4.4 143.83-4.4L143.83-4.4 145.03-0.2Q143.33 0.75 141.23 0.75L141.23 0.75ZM161.03-37.7L167.18-37.05 167.18 0 161.73 0 161.43-3.05Q159.08 0.75 155.38 0.75L155.38 0.75Q151.28 0.75 149.11-2.93 146.93-6.6 146.93-13.2L146.93-13.2Q146.93-17.4 148.06-20.58 149.18-23.75 151.18-25.45 153.18-27.15 155.78-27.15L155.78-27.15Q158.98-27.15 161.03-24.5L161.03-24.5 161.03-37.7ZM157.13-3.9Q158.28-3.9 159.21-4.7 160.13-5.5 161.03-7L161.03-7 161.03-19.85Q159.43-22.55 157.38-22.55L157.38-22.55Q153.33-22.55 153.33-13.25L153.33-13.25Q153.33-8.2 154.33-6.05 155.33-3.9 157.13-3.9L157.13-3.9Z" fill="#ffffff" data-fill-palette-color="primary"></path></g></svg></g></svg></g></svg></g></svg></g><g><svg viewBox="0 0 132.35234675456996 132.35234675457" height="132.35234675457" width="132.35234675456996"><g><svg></svg></g><g id="icon-0"><svg viewBox="0 0 132.35234675456996 132.35234675457" height="132.35234675457" width="132.35234675456996"><g><path transform="scale(1.32352,1.32352)" d="M30 100c-16.569 0-30-13.431-30-30v-40c0-16.569 13.431-30 30-30h40c16.569 0 30 13.431 30 30v40c0 16.569-13.431 30-30 30z" fill="#ffffff" fill-rule="nonzero" stroke="none" stroke-width="1" stroke-linecap="butt" stroke-linejoin="miter" stroke-miterlimit="10" stroke-dasharray="" stroke-dashoffset="0" font-family="none" font-weight="none" font-size="none" text-anchor="none" style="mix-blend-mode: normal" data-fill-palette-color="accent"></path></g><g transform="matrix(1,0,0,1,26.470469350913987,26.470469350914)"><svg viewBox="0 0 79.41140805274199 79.41140805274199" height="79.41140805274199" width="79.41140805274199"><g><svg xmlns="http://www.w3.org/2000/svg" viewBox="2.5 2.5 27 27" x="0" y="0" height="79.41140805274199" width="79.41140805274199" class="icon-dxe-0" data-fill-palette-color="quaternary" id="dxe-0"><g data-name="Layer 51" fill="#2e8b57" data-fill-palette-color="quaternary"><line x1="9" y1="24" x2="19" y2="17" fill="#2e8b57" data-fill-palette-color="quaternary"></line><path d="M16 26.5A3.51 3.51 0 0 0 12.54 29.5H19.47A3.51 3.51 0 0 0 16 26.5" fill="#2e8b57" data-fill-palette-color="quaternary"></path><path d="M29.5 29.5V2.5H26.5V11A0.5 0.5 0 0 1 26 11.5H20.45A4.47 4.47 0 0 1 11.55 11.5H6A0.5 0.5 0 0 1 5.5 11V2.5H2.5V29.5H11.55A4.47 4.47 0 0 1 20.45 29.5ZM7 27A1 1 0 1 1 8 26 1 1 0 0 1 7 27M19.29 17.41L9.29 24.41A0.5 0.5 0 0 1 8.72 23.59L18.72 16.59A0.5 0.5 0 1 1 19.29 17.41M20 15A1 1 0 1 1 21 16 1 1 0 0 1 20 15" fill="#2e8b57" data-fill-palette-color="quaternary"></path><path d="M25.5 10.5V2.5H6.5V10.5zM10 7A1 1 0 1 1 11 6 1 1 0 0 1 10 7" fill="#2e8b57" data-fill-palette-color="quaternary"></path><path d="M16 14.5A3.51 3.51 0 0 0 19.46 11.5H12.54A3.51 3.51 0 0 0 16 14.5" fill="#2e8b57" data-fill-palette-color="quaternary"></path></g></svg></g></svg></g></svg></g></svg></g></svg></g><defs></defs></svg><rect width="395.52" height="95.09501051722141" fill="none" stroke="none" visibility="hidden"></rect></g></svg></g></svg>